<svg width="193" height="40" viewBox="0 0 193 40" fill="none" xmlns="http://www.w3.org/2000/svg">
<g clip-path="url(#clip0_11_401)">
<path d="M9.25333 19.5308C9.56896 15.4684 12.9819 12.1849 17.1374 11.9533C18.9359 11.8534 20.6299 12.2962 22.04 13.1455C29.8741 17.1057 26.6451 1.60542 19.0994 0.140781C16.1882 -0.42691 12.991 0.726639 11.297 3.57645L0.992284 21.0454C-1.72355 25.6642 1.45098 31.382 6.73278 31.7771C9.5508 31.7771 11.3288 29.7061 11.3492 27.3014C11.3674 24.4402 8.96721 23.4911 9.25333 19.5308Z" fill="url(#paint0_linear_11_401)"/>
<path d="M26.0434 20.1576C26.0434 21.9356 25.4711 23.5728 24.5015 24.9171C23.2549 27.2106 24.0928 29.7766 25.9934 31.0209C26.7087 31.4865 27.5761 31.768 28.5457 31.7794C30.1194 31.659 31.4977 31.0732 32.6013 30.183C35.1946 28.0803 36.196 24.2927 34.2976 21.0477C31.4569 16.2473 26.0434 15.2868 26.0434 20.1576Z" fill="url(#paint1_linear_11_401)"/>
<path d="M12.5528 23.4911C14.2286 25.9457 17.6075 26.8245 20.3052 25.4916C25.4121 22.9665 21.9606 18.4295 26.4839 16.0043C29.1702 14.5488 30.6303 16.731 32.8057 14.8417C33.7958 14.0038 34.1636 12.6095 33.714 11.397C32.5605 8.30417 28.0553 8.74924 27.4445 11.9124C26.7292 15.1256 23.0641 15.943 20.2643 14.9144C18.4658 14.0447 16.2905 14.0651 14.4534 15.146C11.5309 16.8831 10.6317 20.6617 12.5528 23.4911Z" fill="url(#paint2_radial_11_401)"/>
</g>
<path d="M176.484 3.55957V13.7343C177.413 12.8047 178.418 12.1076 179.498 11.6428C180.579 11.178 181.734 10.9456 182.965 10.9456C185.641 10.9456 187.914 11.9568 189.786 13.9792C191.658 16.0016 192.594 18.5955 192.594 21.761C192.594 24.8134 191.626 27.3696 189.692 29.4297C187.757 31.4772 185.465 32.5009 182.815 32.5009C181.634 32.5009 180.535 32.2937 179.517 31.8791C178.5 31.452 177.489 30.7612 176.484 29.8065V31.9733H171.377V3.55957H176.484ZM181.891 15.6938C180.271 15.6938 178.927 16.2465 177.859 17.3519C176.791 18.4573 176.258 19.9019 176.258 21.6856C176.258 23.507 176.791 24.983 177.859 26.1135C178.927 27.2314 180.271 27.7904 181.891 27.7904C183.461 27.7904 184.78 27.2189 185.848 26.0758C186.928 24.9327 187.469 23.4756 187.469 21.7044C187.469 19.9458 186.941 18.5076 185.886 17.3896C184.831 16.2591 183.499 15.6938 181.891 15.6938Z" fill="#343434"/>
<path d="M148.183 11.4731H153.383V21.3464C153.383 23.2683 153.515 24.606 153.779 25.3597C154.043 26.1008 154.464 26.6787 155.041 27.0932C155.632 27.5077 156.354 27.715 157.208 27.715C158.062 27.715 158.785 27.514 159.375 27.112C159.978 26.6975 160.424 26.0946 160.713 25.3032C160.926 24.7128 161.033 23.4504 161.033 21.5159V11.4731H166.196V20.1593C166.196 23.7393 165.913 26.1888 165.348 27.5077C164.657 29.1156 163.64 30.3529 162.296 31.2196C160.952 32.0738 159.243 32.5008 157.171 32.5008C154.922 32.5008 153.101 31.9984 151.706 30.9935C150.325 29.9886 149.351 28.588 148.786 26.7917C148.384 25.5481 148.183 23.2871 148.183 20.0086V11.4731Z" fill="#343434"/>
<path d="M125.045 3.55957H130.151V13.5458C131.156 12.6791 132.167 12.0322 133.185 11.6051C134.202 11.1655 135.232 10.9456 136.275 10.9456C138.31 10.9456 140.024 11.6491 141.419 13.0559C142.612 14.2744 143.209 16.0644 143.209 18.4259V31.9733H138.14V22.9857C138.14 20.6116 138.027 19.0037 137.801 18.1621C137.575 17.3205 137.185 16.6925 136.633 16.2779C136.093 15.8634 135.421 15.6561 134.617 15.6561C133.574 15.6561 132.676 16.0016 131.922 16.6925C131.181 17.3833 130.666 18.3254 130.377 19.5188C130.226 20.1343 130.151 21.5411 130.151 23.7394V31.9733H125.045V3.55957Z" fill="#343434"/>
<path d="M114.079 3.91748H119.204V11.4731H122.256V15.901H119.204V31.9733H114.079V15.901H111.441V11.4731H114.079V3.91748Z" fill="#343434"/>
<path d="M90.2814 11.4731H95.4064V13.5646C96.5746 12.5848 97.6298 11.9065 98.5719 11.5297C99.5265 11.1403 100.5 10.9456 101.492 10.9456C103.527 10.9456 105.254 11.6553 106.674 13.0747C107.867 14.2806 108.464 16.0643 108.464 18.4258V31.9733H103.377V22.9856C103.377 20.5361 103.264 18.9095 103.037 18.1055C102.824 17.3016 102.441 16.6924 101.888 16.2778C101.348 15.8508 100.676 15.6372 99.872 15.6372C98.8294 15.6372 97.9312 15.9889 97.1776 16.6924C96.4364 17.3832 95.9214 18.3442 95.6325 19.5752C95.4818 20.2158 95.4064 21.6039 95.4064 23.7393V31.9733H90.2814V11.4731Z" fill="#343434"/>
<path d="M86.0985 23.2117H69.574C69.8127 24.6688 70.447 25.8308 71.4771 26.6975C72.5197 27.5517 73.8449 27.9787 75.4527 27.9787C77.3746 27.9787 79.0264 27.3067 80.4082 25.9626L84.7419 27.9976C83.6616 29.5301 82.3678 30.6669 80.8604 31.408C79.353 32.1366 77.563 32.5008 75.4904 32.5008C72.2747 32.5008 69.6557 31.4896 67.6333 29.4673C65.6109 27.4323 64.5997 24.8887 64.5997 21.8362C64.5997 18.7085 65.6046 16.1146 67.6145 14.0545C69.6368 11.9819 72.1679 10.9456 75.2078 10.9456C78.4361 10.9456 81.0614 11.9819 83.0838 14.0545C85.1061 16.1146 86.1173 18.8404 86.1173 22.2319L86.0985 23.2117ZM80.9358 19.1607C80.5966 18.0176 79.9246 17.0881 78.9197 16.3721C77.9273 15.6561 76.7717 15.2981 75.4527 15.2981C74.0207 15.2981 72.7646 15.7 71.6843 16.504C71.006 17.0064 70.378 17.892 69.8001 19.1607H80.9358Z" fill="#343434"/>
<path d="M55.2353 11.4731H60.3603V29.0339C60.3603 32.5008 59.6632 35.0508 58.2689 36.6838C56.3972 38.8946 53.5772 40 49.8088 40C47.799 40 46.1095 39.7487 44.7403 39.2463C43.3711 38.7438 42.2155 38.0027 41.2733 37.0229C40.3312 36.0557 39.6341 34.8749 39.1819 33.4806H44.8533C45.3558 34.0584 46.0027 34.4918 46.7941 34.7807C47.5854 35.0822 48.5212 35.2329 49.6015 35.2329C50.9833 35.2329 52.095 35.0194 52.9366 34.5923C53.7782 34.1652 54.3686 33.6125 54.7077 32.9342C55.0594 32.2559 55.2353 31.0877 55.2353 29.4296C54.3309 30.334 53.3825 30.9872 52.3901 31.3892C51.3978 31.7786 50.2736 31.9733 49.0174 31.9733C46.2665 31.9733 43.9426 30.9809 42.0459 28.9962C40.1491 27.0115 39.2007 24.4993 39.2007 21.4594C39.2007 18.206 40.2056 15.5933 42.2155 13.6211C44.0368 11.8374 46.21 10.9456 48.7348 10.9456C49.9156 10.9456 51.0272 11.1654 52.0698 11.605C53.125 12.0321 54.1801 12.7418 55.2353 13.7342V11.4731ZM49.903 15.7503C48.2826 15.7503 46.9448 16.2967 45.8896 17.3895C44.8345 18.4698 44.3069 19.8327 44.3069 21.4782C44.3069 23.1866 44.8471 24.5872 45.9273 25.68C47.0076 26.7729 48.3642 27.3193 49.9972 27.3193C51.5925 27.3193 52.9052 26.7854 53.9352 25.7177C54.9778 24.65 55.4991 23.2494 55.4991 21.5159C55.4991 19.8076 54.9778 18.4196 53.9352 17.3518C52.8926 16.2841 51.5485 15.7503 49.903 15.7503Z" fill="#343434"/>
<defs>
<linearGradient id="paint0_linear_11_401" x1="5.44665" y1="-0.155313" x2="15.2928" y2="22.2043" gradientUnits="userSpaceOnUse">
<stop stop-color="white"/>
<stop offset="0.0641" stop-color="#E3F6FC"/>
<stop offset="0.2026" stop-color="#9CDEF5"/>
<stop offset="0.4034" stop-color="#2CB9E9"/>
<stop offset="0.4785" stop-color="#00AAE5"/>
<stop offset="0.7651" stop-color="#0076B8"/>
<stop offset="1" stop-color="#004891"/>
</linearGradient>
<linearGradient id="paint1_linear_11_401" x1="26.2427" y1="16.8704" x2="31.107" y2="26.9979" gradientUnits="userSpaceOnUse">
<stop stop-color="white"/>
<stop offset="0.0641" stop-color="#E3F6FC"/>
<stop offset="0.2026" stop-color="#9CDEF5"/>
<stop offset="0.4034" stop-color="#2CB9E9"/>
<stop offset="0.4785" stop-color="#00AAE5"/>
<stop offset="0.7651" stop-color="#0076B8"/>
<stop offset="1" stop-color="#004891"/>
</linearGradient>
<radialGradient id="paint2_radial_11_401" cx="0" cy="0" r="1" gradientUnits="userSpaceOnUse" gradientTransform="translate(12.0646 14.1031) scale(12.8373 13.2178)">
<stop stop-color="white"/>
<stop offset="0.0832" stop-color="#FEF3E3"/>
<stop offset="0.2628" stop-color="#FCD69C"/>
<stop offset="0.4785" stop-color="#FAAF40"/>
<stop offset="0.8067" stop-color="#F47B31"/>
<stop offset="1" stop-color="#F05A28"/>
</radialGradient>
<clipPath id="clip0_11_401">
<rect width="35.2809" height="31.7771" fill="white"/>
</clipPath>
</defs>
</svg>
